<?xml version="1.0" standalone="no"?>
<!DOCTYPE svg PUBLIC "-//W3C//DTD SVG 20010904//EN"
 "http://www.w3.org/TR/2001/REC-SVG-20010904/DTD/svg10.dtd">
<svg version="1.0" xmlns="http://www.w3.org/2000/svg"
 width="260.000000pt" height="260.000000pt" viewBox="0 0 260.000000 260.000000"
 preserveAspectRatio="xMidYMid meet">
<metadata>
Created by potrace 1.11, written by Peter Selinger 2001-2013
</metadata>
<g transform="translate(0.000000,260.000000) scale(0.100000,-0.100000)"
fill="#000000" stroke="none">
<path d="M1230 2225 l0 -375 65 0 65 0 0 375 0 375 -65 0 -65 0 0 -375z"/>
<path d="M470 1905 l0 -175 65 0 65 0 0 110 0 110 115 0 115 0 0 65 0 65 -180
0 -180 0 0 -175z"/>
<path d="M1750 2015 l0 -65 115 0 115 0 0 -105 0 -105 -33 0 c-18 0 -58 -7
-88 -16 -53 -15 -187 -82 -214 -106 -49 -44 -46 -44 -80 -7 -31 34 -32 35 -61
19 -16 -8 -42 -17 -59 -19 -16 -2 -36 -12 -43 -23 -10 -13 -18 -16 -24 -10 -6
6 -16 8 -22 6 -6 -2 -29 16 -50 41 -25 31 -43 44 -54 40 -8 -3 -23 2 -33 11
-21 19 -46 10 -29 -11 18 -22 -19 -27 -42 -5 -24 22 -46 16 -27 -7 10 -12 10
-16 -2 -24 -8 -5 -21 -6 -29 -3 -58 24 -70 27 -77 20 -11 -11 25 -35 73 -48
26 -7 40 -16 37 -24 -2 -6 1 -15 7 -19 6 -4 15 6 21 23 11 33 42 54 37 25 -5
-27 21 -26 28 1 9 39 37 33 51 -11 7 -24 8 -39 2 -41 -27 -10 -70 -56 -64 -70
4 -12 3 -12 -9 -3 -9 8 -16 8 -20 2 -4 -6 3 -15 14 -21 11 -6 20 -16 20 -23 0
-8 -3 -7 -9 2 -8 12 -12 13 -25 1 -9 -7 -14 -15 -11 -18 3 -3 -6 -20 -20 -37
-13 -18 -21 -36 -17 -39 3 -4 -2 -4 -12 0 -16 6 -18 3 -14 -20 3 -14 1 -29 -4
-32 -4 -3 -6 -9 -3 -13 2 -5 -4 -16 -15 -26 -11 -10 -20 -26 -20 -37 0 -10 -4
-18 -10 -18 -5 0 -9 -3 -7 -7 1 -5 -3 -8 -8 -8 -13 0 -8 37 6 46 6 4 7 9 3 11
-5 3 -3 3 4 2 6 -2 12 3 12 11 0 7 6 20 13 27 6 7 13 22 15 33 5 29 35 95 43
95 4 0 10 8 13 18 6 13 2 12 -15 -5 l-23 -22 -34 26 -35 26 -19 -22 c-12 -15
-25 -22 -38 -18 -25 7 -38 -13 -16 -25 23 -13 -1 -36 -31 -30 -13 2 -23 -1
-23 -7 0 -6 5 -11 11 -11 6 0 9 -8 7 -17 -2 -13 -11 -17 -31 -15 -19 2 -27 -1
-27 -11 0 -9 5 -17 12 -19 23 -8 -60 -95 -112 -117 -47 -20 -60 -34 -42 -45
16 -10 111 41 138 74 15 19 30 37 32 40 3 3 7 -1 9 -7 3 -7 11 -13 19 -13 17
0 17 1 4 34 -5 14 -5 28 -1 31 5 3 11 -2 15 -10 3 -8 13 -15 23 -15 10 0 14 4
8 8 -14 10 -12 64 3 69 6 3 12 -2 12 -11 0 -9 6 -16 14 -16 11 0 13 7 6 29 -6
21 -4 35 7 51 l15 21 15 -28 c14 -27 12 -33 -34 -126 -46 -93 -49 -97 -75 -91
-35 7 -36 -3 -3 -16 23 -9 25 -14 21 -50 -7 -62 17 -85 88 -85 37 0 56 -4 57
-12 1 -7 2 -17 3 -23 0 -5 5 -9 11 -7 5 1 9 4 8 7 -1 3 -4 12 -8 21 -5 13 9
24 57 48 63 31 98 51 108 61 3 3 17 5 33 5 19 1 26 -3 22 -12 -2 -8 6 -18 20
-25 25 -11 34 -28 15 -28 -5 0 -25 -13 -43 -30 -28 -24 -40 -29 -66 -24 -32 7
-45 -11 -16 -22 26 -10 4 -25 -26 -19 -30 7 -41 -8 -14 -19 8 -3 15 -10 15
-16 0 -6 -5 -8 -12 -4 -7 4 -8 3 -4 -4 4 -8 0 -12 -12 -12 -24 0 -46 -24 -71
-80 -24 -53 -26 -70 -7 -70 12 0 53 86 48 103 -1 4 4 7 11 7 16 0 57 42 57 58
0 6 5 14 12 18 7 5 9 2 5 -9 -4 -11 -2 -14 9 -10 7 3 14 0 14 -6 0 -6 7 -11
15 -11 11 0 14 7 9 24 -6 27 12 44 29 27 18 -18 28 -13 22 12 -8 28 19 57 29
32 9 -25 29 -17 24 9 -4 18 2 31 20 46 l24 22 -41 39 -41 39 41 38 c23 20 45
39 49 42 4 3 23 26 42 52 33 43 37 45 56 32 11 -8 27 -11 36 -8 27 10 18 -25
-9 -38 -27 -12 -36 -44 -10 -34 9 3 15 0 15 -8 0 -8 -13 -19 -30 -25 -37 -12
-41 -35 -4 -28 17 3 22 1 16 -5 -13 -13 26 -108 44 -108 18 0 18 2 -3 61 -17
48 -13 73 9 51 28 -28 39 -1 13 28 -9 10 -13 24 -9 34 5 14 9 15 15 4 7 -10
10 -11 21 0 11 11 10 15 -5 23 -12 7 -16 17 -12 29 6 19 -18 48 -69 84 -33 23
-14 45 35 41 36 -4 52 1 111 37 37 24 68 46 68 51 0 22 -35 15 -87 -20 -32
-21 -64 -38 -70 -37 -7 1 -22 2 -33 3 -16 1 -19 7 -17 36 2 19 6 38 10 41 4 4
7 17 7 28 0 36 171 137 280 166 54 15 85 18 173 19 l67 1 0 175 0 175 -180 0
-180 0 0 -65z m-370 -455 c0 -5 -7 -10 -15 -10 -13 0 -14 -3 -3 -16 36 -46 96
-103 123 -118 l30 -16 -30 6 c-16 4 -38 13 -47 21 -14 13 -20 12 -47 -13 -17
-15 -28 -31 -25 -36 3 -5 1 -7 -4 -6 -10 3 -131 -100 -283 -242 -15 -14 -46
-43 -70 -65 -42 -38 -42 -38 -14 -5 17 19 59 64 95 99 36 35 64 68 63 72 -2 5
2 9 8 9 15 0 144 141 143 156 -1 8 2 11 8 8 5 -3 24 10 43 30 33 35 33 36 15
59 -10 13 -22 36 -25 50 -6 23 -4 27 14 27 12 0 21 -4 21 -10z m-70 -385 c0
-7 -30 -13 -34 -7 -3 4 4 9 15 9 10 1 19 0 19 -2z"/>
<path d="M1687 2013 c-2 -5 -5 -26 -6 -47 -3 -53 -55 -178 -102 -246 -41 -58
-44 -84 -4 -35 24 30 85 145 105 199 19 53 26 164 7 129z"/>
<path d="M1445 1800 c3 -5 2 -10 -4 -10 -5 0 -20 -17 -32 -37 -13 -21 -29 -44
-37 -52 -12 -12 -12 -25 -2 -88 0 -2 8 -3 18 -3 14 0 15 2 2 10 -9 6 -10 10
-3 10 6 0 10 8 8 18 -1 10 14 46 35 82 37 60 41 80 19 80 -6 0 -7 -4 -4 -10z"/>
<path d="M0 1300 l0 -70 375 0 375 0 0 70 0 70 -375 0 -375 0 0 -70z"/>
<path d="M1840 1300 l0 -70 380 0 380 0 0 70 0 70 -380 0 -380 0 0 -70z"/>
<path d="M1286 1021 c-10 -15 22 -20 34 -5 10 11 9 14 -8 14 -12 0 -23 -4 -26
-9z"/>
<path d="M470 685 l0 -175 180 0 180 0 0 65 0 65 -57 1 c-32 0 -84 0 -115 -1
l-58 -1 0 110 0 111 -65 0 -65 0 0 -175z"/>
<path d="M1980 751 l0 -110 -112 1 -113 1 -3 -66 -3 -67 181 0 180 0 0 175 0
175 -65 0 -65 0 0 -109z"/>
<path d="M1230 375 l0 -375 65 0 65 0 0 375 0 375 -65 0 -65 0 0 -375z"/>
</g>
</svg>
